# Blender 4.1.0
# www.blender.org
mtllib anchor.mtl
o Cube
v -0.214205 -0.214205 0.214205
v -0.214205 7.214205 0.214205
v 0.185899 -0.098005 2.152079
v 0.185899 0.249137 1.964991
v 0.214205 -0.214205 0.214205
v 0.214205 7.214205 0.214205
v -0.185899 -0.098005 2.152079
v -0.185899 0.249137 1.964991
v 0.000000 0.455106 2.762772
v -0.214205 -0.614205 0.214205
v 0.214205 -0.614205 0.214205
v -0.214205 -0.214205 1.098629
v 0.214205 -0.214205 1.098629
v -0.214205 -0.614205 1.314205
v 0.214205 -0.614205 1.314205
v -0.214205 -0.214205 0.000000
v -0.214205 7.214205 0.000000
v 0.214205 -0.214205 0.000000
v 0.214205 7.214205 0.000000
v -0.214205 -0.614205 0.000000
v 0.214205 -0.614205 0.000000
v -0.214205 -0.214205 -0.214205
v -0.214205 7.214205 -0.214205
v 0.185899 -0.098005 -2.152079
v 0.185899 0.249137 -1.964991
v 0.214205 -0.214205 -0.214205
v 0.214205 7.214205 -0.214205
v -0.185899 -0.098005 -2.152079
v -0.185899 0.249137 -1.964991
v 0.000000 0.455106 -2.762772
v -0.214205 -0.614205 -0.214205
v 0.214205 -0.614205 -0.214205
v -0.214205 -0.214205 -1.098629
v 0.214205 -0.214205 -1.098629
v -0.214205 -0.614205 -1.314205
v 0.214205 -0.614205 -1.314205
vn 0.9740 0.1074 0.1992
vn -0.0000 -0.8514 0.5245
vn 1.0000 -0.0000 -0.0000
vn -0.0000 -0.0000 1.0000
vn -0.0000 1.0000 -0.0000
vn -0.0000 -1.0000 -0.0000
vn -1.0000 -0.0000 -0.0000
vn 0.9996 0.0137 0.0254
vn -0.9996 0.0137 0.0254
vn -0.0000 0.8818 -0.4716
vn -0.0000 -0.7412 0.6713
vn -0.9740 0.1074 0.1992
vn -0.0000 0.9683 -0.2500
vn 0.9740 0.1074 -0.1992
vn -0.0000 -0.8514 -0.5245
vn -0.0000 -0.0000 -1.0000
vn 0.9996 0.0137 -0.0254
vn -0.9996 0.0137 -0.0254
vn -0.0000 0.8818 0.4716
vn -0.0000 -0.7412 -0.6713
vn -0.9740 0.1074 -0.1992
vn -0.0000 0.9683 0.2500
vt 0.375000 0.750000
vt 0.125000 0.750000
vt 0.375000 0.625000
vt 0.625000 0.625000
vt 0.625000 0.750000
vt 0.625000 1.000000
vt 0.375000 1.000000
vt 0.875000 0.625000
vt 0.875000 0.750000
vt 0.125000 0.625000
vt 0.375000 0.000000
vt 0.375000 0.125000
vt 0.625000 0.000000
vt 0.625000 0.125000
s 0
f 3/1/1 4/1/1 9/1/1
f 14/2/2 15/1/2 3/1/2 7/2/2
f 18/3/3 19/4/3 6/5/3 5/1/3
f 5/1/4 6/5/4 2/6/4 1/7/4
f 18/3/3 5/1/3 11/1/3 21/3/3
f 19/4/5 17/8/5 2/9/5 6/5/5
f 20/10/6 21/3/6 11/1/6 10/2/6
f 1/11/7 10/11/7 14/11/7 12/11/7
f 15/1/8 13/1/8 4/1/8 3/1/8
f 12/11/9 14/11/9 7/11/9 8/11/9
f 11/1/3 5/1/3 13/1/3 15/1/3
f 5/1/5 1/7/5 12/7/5 13/1/5
f 10/2/6 11/1/6 15/1/6 14/2/6
f 1/11/7 16/12/7 20/12/7 10/11/7
f 13/1/10 12/7/10 8/7/10 4/1/10
f 7/2/11 3/1/11 9/2/11
f 8/11/12 7/11/12 9/11/12
f 4/1/13 8/7/13 9/1/13
f 1/11/7 2/13/7 17/14/7 16/12/7
f 24/1/14 30/1/14 25/1/14
f 35/2/15 28/2/15 24/1/15 36/1/15
f 18/3/3 26/1/3 27/5/3 19/4/3
f 26/1/16 22/7/16 23/6/16 27/5/16
f 18/3/3 21/3/3 32/1/3 26/1/3
f 19/4/5 27/5/5 23/9/5 17/8/5
f 20/10/6 31/2/6 32/1/6 21/3/6
f 22/11/7 33/11/7 35/11/7 31/11/7
f 36/1/17 24/1/17 25/1/17 34/1/17
f 33/11/18 29/11/18 28/11/18 35/11/18
f 32/1/3 36/1/3 34/1/3 26/1/3
f 26/1/5 34/1/5 33/7/5 22/7/5
f 31/2/6 35/2/6 36/1/6 32/1/6
f 22/11/7 31/11/7 20/12/7 16/12/7
f 34/1/19 25/1/19 29/7/19 33/7/19
f 28/2/20 30/2/20 24/1/20
f 29/11/21 30/11/21 28/11/21
f 25/1/22 30/1/22 29/7/22
f 22/11/7 16/12/7 17/14/7 23/13/7
