# Blender 4.1.0
# www.blender.org
mtllib central_ring_lvl-1.mtl
o Cylinder
v -0.000000 -1.100000 -5.465692
v 0.000000 1.100000 -8.800000
v 2.732846 -1.100000 -4.733428
v 4.400000 1.100000 -7.621024
v 4.733428 -1.100000 -2.732846
v 7.621024 1.100000 -4.400000
v 5.465692 -1.100000 0.000000
v 8.800000 1.100000 -0.000000
v 4.733428 -1.100000 2.732846
v 7.621024 1.100000 4.400000
v 2.732846 -1.100000 4.733428
v 4.400000 1.100000 7.621024
v -0.000000 -1.100000 5.465692
v 0.000000 1.100000 8.800000
v -2.732846 -1.100000 4.733428
v -4.400000 1.100000 7.621024
v -4.733428 -1.100000 2.732846
v -7.621024 1.100000 4.400000
v -5.465692 -1.100000 0.000000
v -8.800000 1.100000 -0.000000
v -4.733428 -1.100000 -2.732846
v -7.621024 1.100000 -4.400000
v -2.732846 -1.100000 -4.733428
v -4.400000 1.100000 -7.621024
v 2.731877 2.000000 -4.731750
v 0.000000 2.000000 -5.463755
v 4.731751 2.000000 -2.731878
v 5.463755 2.000000 0.000000
v 4.731750 2.000000 2.731877
v 2.731878 2.000000 4.731751
v 0.000000 2.000000 5.463755
v -2.731877 2.000000 4.731750
v -4.731751 2.000000 2.731878
v -5.463755 2.000000 0.000000
v -4.731750 2.000000 -2.731877
v -2.731878 2.000000 -4.731751
v 0.000000 -1.100000 -8.800000
v 4.400000 -1.100000 -7.621024
v 7.621024 -1.100000 -4.400000
v 8.800000 -1.100000 -0.000000
v 7.621024 -1.100000 4.400000
v 4.400000 -1.100000 7.621024
v 0.000000 -1.100000 8.800000
v -4.400000 -1.100000 7.621024
v -7.621024 -1.100000 4.400000
v -8.800000 -1.100000 -0.000000
v -7.621024 -1.100000 -4.400000
v -4.400000 -1.100000 -7.621024
v 4.000000 2.000000 -6.928203
v 0.000000 2.000000 -8.000000
v 6.928203 2.000000 -4.000000
v 8.000000 2.000000 0.000000
v 6.928203 2.000000 4.000000
v 4.000000 2.000000 6.928203
v 0.000000 2.000000 8.000000
v -4.000000 2.000000 6.928203
v -6.928203 2.000000 4.000000
v -8.000000 2.000000 0.000000
v -6.928203 2.000000 -4.000000
v -4.000000 2.000000 -6.928203
vn 0.2588 -0.0000 -0.9659
vn 0.7071 -0.0000 -0.7071
vn 0.9659 -0.0000 -0.2588
vn 0.9659 -0.0000 0.2588
vn 0.7071 -0.0000 0.7071
vn 0.2588 -0.0000 0.9659
vn -0.2588 -0.0000 0.9659
vn -0.7071 -0.0000 0.7071
vn -0.9659 -0.0000 0.2588
vn -0.9659 -0.0000 -0.2588
vn 0.7329 0.6514 -0.1964
vn -0.7071 -0.0000 -0.7071
vn -0.2588 -0.0000 -0.9659
vn 0.9659 -0.0006 -0.2588
vn -0.5365 0.6514 -0.5365
vn 0.5365 0.6514 -0.5365
vn -0.7329 0.6514 -0.1964
vn -0.7329 0.6514 0.1964
vn -0.5365 0.6514 0.5365
vn -0.1964 0.6514 0.7329
vn 0.1964 0.6514 0.7329
vn 0.5365 0.6514 0.5365
vn 0.7329 0.6514 0.1964
vn -0.1964 0.6514 -0.7329
vn 0.1964 0.6514 -0.7329
vn -0.0000 -1.0000 -0.0000
vn -0.0000 1.0000 -0.0000
vn 0.9659 -0.0006 0.2588
vn 0.7071 -0.0006 0.7071
vn 0.2588 -0.0006 0.9659
vn -0.2588 -0.0006 0.9659
vn -0.7071 -0.0006 0.7071
vn -0.9659 -0.0006 0.2588
vn -0.9659 -0.0006 -0.2588
vn -0.7071 -0.0006 -0.7071
vn -0.2588 -0.0006 -0.9659
vn 0.2588 -0.0006 -0.9659
vn 0.7071 -0.0006 -0.7071
vt 1.000000 0.500000
vt 1.000000 1.000000
vt 0.916667 1.000000
vt 0.916667 0.500000
vt 0.833333 1.000000
vt 0.833333 0.500000
vt 0.750000 1.000000
vt 0.750000 0.500000
vt 0.666667 1.000000
vt 0.666667 0.500000
vt 0.583333 1.000000
vt 0.583333 0.500000
vt 0.500000 1.000000
vt 0.500000 0.500000
vt 0.416667 1.000000
vt 0.416667 0.500000
vt 0.333333 1.000000
vt 0.333333 0.500000
vt 0.250000 1.000000
vt 0.250000 0.500000
vt 0.166667 1.000000
vt 0.166667 0.500000
vt 0.083333 1.000000
vt 0.083333 0.500000
vt 0.000000 1.000000
vt 0.000000 0.500000
vt 0.602057 0.164585
vt 0.579170 0.250000
vt 0.086087 0.250000
vt 0.108047 0.168044
vt 0.835415 0.397943
vt 0.750000 0.420830
vt 0.750000 0.490000
vt 0.870000 0.457846
vt 0.897943 0.335415
vt 0.957846 0.370000
vt 0.920830 0.250000
vt 0.990000 0.250000
vt 0.897943 0.164585
vt 0.957846 0.130000
vt 0.835415 0.102057
vt 0.870000 0.042154
vt 0.750000 0.079170
vt 0.750000 0.010000
vt 0.664585 0.102057
vt 0.630000 0.042154
vt 0.542154 0.130000
vt 0.510000 0.250000
vt 0.602057 0.335415
vt 0.542154 0.370000
vt 0.664585 0.397943
vt 0.630000 0.457846
vt 0.250000 0.413913
vt 0.331956 0.391953
vt 0.370000 0.457846
vt 0.250000 0.490000
vt 0.391953 0.331956
vt 0.457846 0.370000
vt 0.413913 0.250000
vt 0.490000 0.250000
vt 0.391953 0.168044
vt 0.457846 0.130000
vt 0.331956 0.108047
vt 0.370000 0.042154
vt 0.250000 0.086087
vt 0.250000 0.010000
vt 0.168044 0.108047
vt 0.130000 0.042154
vt 0.042154 0.130000
vt 0.010000 0.250000
vt 0.108047 0.331956
vt 0.042154 0.370000
vt 0.168044 0.391953
vt 0.130000 0.457846
s 0
f 37/1/1 2/2/1 4/3/1 38/4/1
f 38/4/2 4/3/2 6/5/2 39/6/2
f 39/6/3 6/5/3 8/7/3 40/8/3
f 40/8/4 8/7/4 10/9/4 41/10/4
f 41/10/5 10/9/5 12/11/5 42/12/5
f 42/12/6 12/11/6 14/13/6 43/14/6
f 43/14/7 14/13/7 16/15/7 44/16/7
f 44/16/8 16/15/8 18/17/8 45/18/8
f 45/18/9 18/17/9 20/19/9 46/20/9
f 46/20/10 20/19/10 22/21/10 47/22/10
f 8/7/11 6/5/11 51/5/11 52/7/11
f 47/22/12 22/21/12 24/23/12 48/24/12
f 48/24/13 24/23/13 2/25/13 37/26/13
f 17/27/14 19/28/14 34/29/14 33/30/14
f 24/23/15 22/21/15 59/21/15 60/23/15
f 6/5/16 4/3/16 49/3/16 51/5/16
f 22/21/17 20/19/17 58/19/17 59/21/17
f 20/19/18 18/17/18 57/17/18 58/19/18
f 18/17/19 16/15/19 56/15/19 57/17/19
f 16/15/20 14/13/20 55/13/20 56/15/20
f 14/13/21 12/11/21 54/11/21 55/13/21
f 12/11/22 10/9/22 53/9/22 54/11/22
f 10/9/23 8/7/23 52/7/23 53/9/23
f 2/25/24 24/23/24 60/23/24 50/25/24
f 4/3/25 2/2/25 50/2/25 49/3/25
f 3/31/26 1/32/26 37/33/26 38/34/26
f 5/35/26 3/31/26 38/34/26 39/36/26
f 7/37/26 5/35/26 39/36/26 40/38/26
f 9/39/26 7/37/26 40/38/26 41/40/26
f 11/41/26 9/39/26 41/40/26 42/42/26
f 13/43/26 11/41/26 42/42/26 43/44/26
f 15/45/26 13/43/26 43/44/26 44/46/26
f 17/27/26 15/45/26 44/46/26 45/47/26
f 19/28/26 17/27/26 45/47/26 46/48/26
f 21/49/26 19/28/26 46/48/26 47/50/26
f 23/51/26 21/49/26 47/50/26 48/52/26
f 1/32/26 23/51/26 48/52/26 37/33/26
f 26/53/27 25/54/27 49/55/27 50/56/27
f 25/54/27 27/57/27 51/58/27 49/55/27
f 27/57/27 28/59/27 52/60/27 51/58/27
f 28/59/27 29/61/27 53/62/27 52/60/27
f 29/61/27 30/63/27 54/64/27 53/62/27
f 30/63/27 31/65/27 55/66/27 54/64/27
f 31/65/27 32/67/27 56/68/27 55/66/27
f 32/67/27 33/30/27 57/69/27 56/68/27
f 33/30/27 34/29/27 58/70/27 57/69/27
f 34/29/27 35/71/27 59/72/27 58/70/27
f 35/71/27 36/73/27 60/74/27 59/72/27
f 36/73/27 26/53/27 50/56/27 60/74/27
f 19/28/28 21/49/28 35/71/28 34/29/28
f 21/49/29 23/51/29 36/73/29 35/71/29
f 23/51/30 1/32/30 26/53/30 36/73/30
f 1/32/31 3/31/31 25/54/31 26/53/31
f 3/31/32 5/35/32 27/57/32 25/54/32
f 5/35/33 7/37/33 28/59/33 27/57/33
f 7/37/34 9/39/34 29/61/34 28/59/34
f 9/39/35 11/41/35 30/63/35 29/61/35
f 11/41/36 13/43/36 31/65/36 30/63/36
f 13/43/37 15/45/37 32/67/37 31/65/37
f 15/45/38 17/27/38 33/30/38 32/67/38
