# Made in Blockbench 4.12.6
mtllib mine.mtl

o cylinder
v 0 0.25 0
v 0 0.3125 0
v 0.025888347648318443 0.25 0.0625
v 0.025888347648318443 0.3125 0.0625
v 0.0625 0.25 0.025888347648318447
v 0.0625 0.3125 0.025888347648318447
v 0.0625 0.25 -0.02588834764831844
v 0.0625 0.3125 -0.02588834764831844
v 0.02588834764831845 0.25 -0.0625
v 0.02588834764831845 0.3125 -0.0625
v -0.025888347648318436 0.25 -0.06250000000000001
v -0.025888347648318436 0.3125 -0.06250000000000001
v -0.062499999999999986 0.25 -0.02588834764831848
v -0.062499999999999986 0.3125 -0.02588834764831848
v -0.06249999999999999 0.25 0.025888347648318457
v -0.06249999999999999 0.3125 0.025888347648318457
v -0.025888347648318485 0.25 0.062499999999999986
v -0.025888347648318485 0.3125 0.062499999999999986
v 0 0 0
v 0 0.25 0
v 0.12184488608733986 0 0.37499999999999994
v 0.12184488608733986 0.25 0.37499999999999994
v 0.31899405313201495 0 0.23176274578121056
v 0.31899405313201495 0.25 0.23176274578121056
v 0.3942983340893502 0 2.414380963758282e-17
v 0.3942983340893502 0.25 2.414380963758282e-17
v 0.31899405313201495 0 -0.23176274578121053
v 0.31899405313201495 0.25 -0.23176274578121053
v 0.12184488608733991 0 -0.37499999999999994
v 0.12184488608733991 0.25 -0.37499999999999994
v -0.12184488608734 0 -0.37499999999999994
v -0.12184488608734 0.25 -0.37499999999999994
v -0.3189940531320149 0 -0.2317627457812106
v -0.3189940531320149 0.25 -0.2317627457812106
v -0.3942983340893502 0 -7.243142891274847e-17
v -0.3942983340893502 0.25 -7.243142891274847e-17
v -0.318994053132015 0 0.23176274578121048
v -0.318994053132015 0.25 0.23176274578121048
v -0.12184488608733997 0 0.37499999999999994
v -0.12184488608733997 0.25 0.37499999999999994
vt 0.21875 0.26294375000000003
vt 0.20044375 0.28125
vt 0.1875 0.25
vt 0.3125 0.25
vt 0.34375 0.25
vt 0.34375 0.28125
vt 0.3125 0.28125
vt 0.76294375 0.78125
vt 0.78125 0.79955625
vt 0.75 0.8125
vt 0.21875 0.23705624999999997
vt 0.21875 0.26294375000000003
vt 0.1875 0.25
vt 0.28125 0.3125
vt 0.3125 0.3125
vt 0.3125 0.34375
vt 0.28125 0.34375
vt 0.78125 0.79955625
vt 0.78125 0.82544375
vt 0.75 0.8125
vt 0.20044375 0.21875
vt 0.21875 0.23705624999999997
vt 0.1875 0.25
vt 0.71875 0.65625
vt 0.75 0.65625
vt 0.75 0.6875
vt 0.71875 0.6875
vt 0.78125 0.82544375
vt 0.76294375 0.84375
vt 0.75 0.8125
vt 0.17455625 0.21875
vt 0.20044375 0.21875
vt 0.1875 0.25
vt 0.71875 0.71875
vt 0.75 0.71875
vt 0.75 0.75
vt 0.71875 0.75
vt 0.76294375 0.84375
vt 0.73705625 0.84375
vt 0.75 0.8125
vt 0.15625 0.23705624999999997
vt 0.17455625 0.21875
vt 0.1875 0.25
vt 0.65625 0.25
vt 0.6875 0.25
vt 0.6875 0.28125
vt 0.65625 0.28125
vt 0.73705625 0.84375
vt 0.71875 0.82544375
vt 0.75 0.8125
vt 0.15625 0.26294375000000003
vt 0.15625 0.23705624999999997
vt 0.1875 0.25
vt 0.65625 0.65625
vt 0.6875 0.65625
vt 0.6875 0.6875
vt 0.65625 0.6875
vt 0.71875 0.82544375
vt 0.71875 0.79955625
vt 0.75 0.8125
vt 0.17455625 0.28125
vt 0.15625 0.26294375000000003
vt 0.1875 0.25
vt 0.71875 0.59375
vt 0.75 0.59375
vt 0.75 0.625
vt 0.71875 0.625
vt 0.71875 0.79955625
vt 0.73705625 0.78125
vt 0.75 0.8125
vt 0.20044375 0.28125
vt 0.17455625 0.28125
vt 0.1875 0.25
vt 0.25 0.25
vt 0.28125 0.25
vt 0.28125 0.28125
vt 0.25 0.28125
vt 0.73705625 0.78125
vt 0.76294375 0.78125
vt 0.75 0.8125
vt 0.36262187500000004 0.92838125
vt 0.264046875 1
vt 0.203125 0.8125
vt 0.5625 0.875
vt 0.68434375 0.875
vt 0.68434375 1
vt 0.5625 1
vt 0.576546875 0.28125
vt 0.6751218750000001 0.35286875000000006
vt 0.515625 0.46875
vt 0.400275 0.8125
vt 0.36262187500000004 0.92838125
vt 0.203125 0.8125
vt 0 0.15625
vt 0.125 0.15625
vt 0.125 0.28125
vt 0 0.28125
vt 0.6751218750000001 0.35286875000000006
vt 0.7127749999999999 0.46875
vt 0.515625 0.46875
vt 0.36262187500000004 0.6966187500000001
vt 0.400275 0.8125
vt 0.203125 0.8125
vt 0.71875 0.875
vt 0.84375 0.875
vt 0.84375 1
vt 0.71875 1
vt 0.7127749999999999 0.46875
vt 0.6751218750000001 0.5846312499999999
vt 0.515625 0.46875
vt 0.264046875 0.625
vt 0.36262187500000004 0.6966187500000001
vt 0.203125 0.8125
vt 0.0031562499999999993 0.46875
vt 0.12499999999999999 0.46875
vt 0.12499999999999999 0.59375
vt 0.0031562499999999993 0.59375
vt 0.6751218750000001 0.5846312499999999
vt 0.576546875 0.65625
vt 0.515625 0.46875
vt 0.14220312499999999 0.625
vt 0.264046875 0.625
vt 0.203125 0.8125
vt 0.12499999999999999 0.46875
vt 0.24684375 0.46875
vt 0.24684375 0.59375
vt 0.12499999999999999 0.59375
vt 0.576546875 0.65625
vt 0.454703125 0.65625
vt 0.515625 0.46875
vt 0.04362812499999999 0.6966187500000001
vt 0.14220312499999999 0.625
vt 0.203125 0.8125
vt 0.006312499999999999 0.3125
vt 0.12815624999999997 0.3125
vt 0.12815624999999997 0.4375
vt 0.006312499999999999 0.4375
vt 0.454703125 0.65625
vt 0.356128125 0.5846312499999999
vt 0.515625 0.46875
vt 0.005975000000000008 0.8125
vt 0.04362812499999999 0.6966187500000001
vt 0.203125 0.8125
vt 0.12815624999999997 0.3125
vt 0.25 0.3125
vt 0.25 0.4375
vt 0.12815624999999997 0.4375
vt 0.356128125 0.5846312499999999
vt 0.318475 0.46875
vt 0.515625 0.46875
vt 0.04362812499999999 0.92838125
vt 0.005975000000000008 0.8125
vt 0.203125 0.8125
vt 0.4375 0.71875
vt 0.55934375 0.71875
vt 0.55934375 0.84375
vt 0.4375 0.84375
vt 0.318475 0.46875
vt 0.356128125 0.35286875000000006
vt 0.515625 0.46875
vt 0.14220312499999999 1
vt 0.04362812499999999 0.92838125
vt 0.203125 0.8125
vt 0.55934375 0.71875
vt 0.6811875000000001 0.71875
vt 0.6811875000000001 0.84375
vt 0.55934375 0.84375
vt 0.356128125 0.35286875000000006
vt 0.454703125 0.28125
vt 0.515625 0.46875
vt 0.264046875 1
vt 0.14220312499999999 1
vt 0.203125 0.8125
vt 0.44065624999999997 0.875
vt 0.5625 0.875
vt 0.5625 1
vt 0.44065624999999997 1
vt 0.454703125 0.28125
vt 0.576546875 0.28125
vt 0.515625 0.46875
vn 0 -1 0
vn 0.7071067811865476 0 0.7071067811865476
vn 0 1 0
vn 0 -1 0
vn 1 0 0
vn 0 1 0
vn 0 -1 0
vn 0.7071067811865476 0 -0.7071067811865475
vn 0 1 0
vn 0 -1 0
vn 2.6803154833089315e-16 0 -1
vn 0 1 0
vn 0 -1 0
vn -0.7071067811865474 0 -0.7071067811865477
vn 0 1 0
vn 0 -1 0
vn -1 0 -1.3401577416544645e-16
vn 0 1 0
vn 0 -1 0
vn -0.7071067811865477 0 0.7071067811865474
vn 0 1 0
vn 0 -1 0
vn -2.680315483308929e-16 0 1
vn 0 1 0
vn 0 -1 0
vn 0.587785252292473 0 0.8090169943749477
vn 0 1 0
vn 0 -1 0
vn 0.9510565162951536 0 0.3090169943749476
vn 0 1 0
vn 0 -1 0
vn 0.9510565162951536 0 -0.3090169943749476
vn 0 1 0
vn 0 -1 0
vn 0.5877852522924731 0 -0.8090169943749475
vn 0 1 0
vn 0 -1 0
vn 0 0 -1
vn 0 1 0
vn 0 -1 0
vn -0.5877852522924734 0 -0.8090169943749473
vn 0 1 0
vn 0 -1 0
vn -0.9510565162951536 0 -0.3090169943749479
vn 0 1 0
vn 0 -1 0
vn -0.9510565162951538 0 0.3090169943749474
vn 0 1 0
vn 0 -1 0
vn -0.5877852522924734 0 0.8090169943749475
vn 0 1 0
vn 0 -1 0
vn 0 0 1
vn 0 1 0
usemtl m_c68853f1-e74a-e919-a180-c46c555d4455
f 5/1/1 3/2/1 1/3/1
f 3/4/2 5/5/2 6/6/2 4/7/2
f 4/8/3 6/9/3 2/10/3
f 7/11/4 5/12/4 1/13/4
f 5/14/5 7/15/5 8/16/5 6/17/5
f 6/18/6 8/19/6 2/20/6
f 9/21/7 7/22/7 1/23/7
f 7/24/8 9/25/8 10/26/8 8/27/8
f 8/28/9 10/29/9 2/30/9
f 11/31/10 9/32/10 1/33/10
f 9/34/11 11/35/11 12/36/11 10/37/11
f 10/38/12 12/39/12 2/40/12
f 13/41/13 11/42/13 1/43/13
f 11/44/14 13/45/14 14/46/14 12/47/14
f 12/48/15 14/49/15 2/50/15
f 15/51/16 13/52/16 1/53/16
f 13/54/17 15/55/17 16/56/17 14/57/17
f 14/58/18 16/59/18 2/60/18
f 17/61/19 15/62/19 1/63/19
f 15/64/20 17/65/20 18/66/20 16/67/20
f 16/68/21 18/69/21 2/70/21
f 3/71/22 17/72/22 1/73/22
f 17/74/23 3/75/23 4/76/23 18/77/23
f 18/78/24 4/79/24 2/80/24
f 23/81/25 21/82/25 19/83/25
f 21/84/26 23/85/26 24/86/26 22/87/26
f 22/88/27 24/89/27 20/90/27
f 25/91/28 23/92/28 19/93/28
f 23/94/29 25/95/29 26/96/29 24/97/29
f 24/98/30 26/99/30 20/100/30
f 27/101/31 25/102/31 19/103/31
f 25/104/32 27/105/32 28/106/32 26/107/32
f 26/108/33 28/109/33 20/110/33
f 29/111/34 27/112/34 19/113/34
f 27/114/35 29/115/35 30/116/35 28/117/35
f 28/118/36 30/119/36 20/120/36
f 31/121/37 29/122/37 19/123/37
f 29/124/38 31/125/38 32/126/38 30/127/38
f 30/128/39 32/129/39 20/130/39
f 33/131/40 31/132/40 19/133/40
f 31/134/41 33/135/41 34/136/41 32/137/41
f 32/138/42 34/139/42 20/140/42
f 35/141/43 33/142/43 19/143/43
f 33/144/44 35/145/44 36/146/44 34/147/44
f 34/148/45 36/149/45 20/150/45
f 37/151/46 35/152/46 19/153/46
f 35/154/47 37/155/47 38/156/47 36/157/47
f 36/158/48 38/159/48 20/160/48
f 39/161/49 37/162/49 19/163/49
f 37/164/50 39/165/50 40/166/50 38/167/50
f 38/168/51 40/169/51 20/170/51
f 21/171/52 39/172/52 19/173/52
f 39/174/53 21/175/53 22/176/53 40/177/53
f 40/178/54 22/179/54 20/180/54