{"asset":{"version":"2.0","generator":"Blockbench 4.12.6 glTF exporter"},"scenes":[{"nodes":[13],"name":"blockbench_export"}],"scene":0,"nodes":[{"translation":[0,-0.28125,0.75],"name":"barrel-4"},{"translation":[0.34375,0.2875,0.75],"name":"barrel-5"},{"translation":[-0.34375,0.29999999999999993,0.75],"name":"barrel-6"},{"translation":[0,-0.15625,1.375],"name":"barrels2","children":[0,1,2]},{"translation":[0,-0.5625,0],"name":"base2"},{"translation":[0.921875,0,0],"name":"gun-2","children":[3,4]},{"translation":[0,-0.5625,0],"name":"base"},{"translation":[0,-0.28125,0.75],"name":"barrel-3"},{"translation":[-0.34375,0.2875,0.75],"name":"barrel-1"},{"translation":[0.34375,0.29999999999999993,0.75],"name":"barrel-2"},{"translation":[0,-0.15625,1.375],"name":"barrels","children":[7,8,9]},{"translation":[-0.890625,0,0],"name":"gun-1","children":[6,10]},{"name":"guns","children":[5,11]},{"translation":[-0.015625,0.8375,-4.0625],"name":"guns","mesh":0,"children":[12],"skin":0}],"bufferViews":[{"buffer":0,"byteOffset":0,"byteLength":12864,"target":34962,"byteStride":12},{"buffer":0,"byteOffset":12864,"byteLength":12864,"target":34962,"byteStride":12},{"buffer":0,"byteOffset":25728,"byteLength":8576,"target":34962,"byteStride":8},{"buffer":0,"byteOffset":34304,"byteLength":8576,"target":34962,"byteStride":8},{"buffer":0,"byteOffset":42880,"byteLength":17152,"target":34962,"byteStride":16},{"buffer":0,"byteOffset":60032,"byteLength":3216,"target":34963},{"buffer":0,"byteOffset":63248,"byteLength":832},{"buffer":0,"byteOffset":64080,"byteLength":12},{"buffer":0,"byteOffset":64092,"byteLength":48},{"buffer":0,"byteOffset":64140,"byteLength":8},{"buffer":0,"byteOffset":64148,"byteLength":24},{"buffer":0,"byteOffset":64172,"byteLength":36},{"buffer":0,"byteOffset":64208,"byteLength":144},{"buffer":0,"byteOffset":64352,"byteLength":12},{"buffer":0,"byteOffset":64364,"byteLength":48},{"buffer":0,"byteOffset":64412,"byteLength":12},{"buffer":0,"byteOffset":64424,"byteLength":36},{"buffer":0,"byteOffset":64460,"byteLength":20},{"buffer":0,"byteOffset":64480,"byteLength":80},{"buffer":0,"byteOffset":64560,"byteLength":36},{"buffer":0,"byteOffset":64596,"byteLength":144},{"buffer":0,"byteOffset":64740,"byteLength":36},{"buffer":0,"byteOffset":64776,"byteLength":144},{"buffer":0,"byteOffset":64920,"byteLength":36},{"buffer":0,"byteOffset":64956,"byteLength":144},{"buffer":0,"byteOffset":65100,"byteLength":20},{"buffer":0,"byteOffset":65120,"byteLength":80},{"buffer":0,"byteOffset":65200,"byteLength":36},{"buffer":0,"byteOffset":65236,"byteLength":144},{"buffer":0,"byteOffset":65380,"byteLength":36},{"buffer":0,"byteOffset":65416,"byteLength":144}],"buffers":[{"byteLength":65560,"uri":"data:application/octet-stream;base64,"}],"accessors":[{"bufferView":0,"componentType":5126,"count":1072,"max":[1.734375,0.625,4.125],"min":[-1.703125,-0.875,0],"type":"VEC3"},{"bufferView":1,"componentType":5126,"count":1072,"max":[1,1,1],"min":[-1,-1,-1],"type":"VEC3"},{"bufferView":2,"componentType":5126,"count":1072,"max":[0.85150146484375,0.6796875],"min":[0,0.00006103515625],"type":"VEC2"},{"bufferView":3,"componentType":5123,"count":1072,"max":[0,12,0,0],"min":[0,2,0,0],"type":"VEC4"},{"bufferView":4,"componentType":5126,"count":1072,"max":[0,1,0,0],"min":[0,1,0,0],"type":"VEC4"},{"bufferView":5,"componentType":5123,"count":1608,"max":[1071],"min":[0],"type":"SCALAR"},{"bufferView":6,"componentType":5126,"count":13,"max":[1,0,0,0,0,1,0,0,0,0,1,0,1.234375,0.5625,0,1],"min":[1,0,0,0,0,1,0,0,0,0,1,0,-1.265625,-0.14374999701976776,-2.125,1],"type":"MAT4"},{"bufferView":7,"componentType":5126,"count":3,"max":[0.25],"min":[0],"type":"SCALAR"},{"bufferView":8,"componentType":5126,"count":3,"max":[0.7071067690849304,0,0,1],"min":[-0.04361938685178757,0,0,0.7071067690849304],"type":"VEC4"},{"bufferView":9,"componentType":5126,"count":2,"max":[0.25],"min":[0],"type":"SCALAR"},{"bufferView":10,"componentType":5126,"count":2,"max":[-0.015625,0.8374999761581421,-0.5],"min":[-0.015625,0.8374999761581421,-0.5],"type":"VEC3"},{"bufferView":11,"componentType":5126,"count":9,"max":[0.666670024394989],"min":[0],"type":"SCALAR"},{"bufferView":12,"componentType":5126,"count":9,"max":[0,0,1,1],"min":[0,0,-1,-1],"type":"VEC4"},{"bufferView":13,"componentType":5126,"count":3,"max":[0.666670024394989],"min":[0],"type":"SCALAR"},{"bufferView":14,"componentType":5126,"count":3,"max":[0.04361938685178757,0,0,1],"min":[0,0,0,0.9990482330322266],"type":"VEC4"},{"bufferView":15,"componentType":5126,"count":3,"max":[0.666670024394989],"min":[0],"type":"SCALAR"},{"bufferView":16,"componentType":5126,"count":3,"max":[-0.015625,0.8374999761581421,-0.5],"min":[-0.015625,0.8374999761581421,-0.8125],"type":"VEC3"},{"bufferView":17,"componentType":5126,"count":5,"max":[0.666670024394989],"min":[0],"type":"SCALAR"},{"bufferView":18,"componentType":5126,"count":5,"max":[0,0,0,1],"min":[0,0,-1,-1],"type":"VEC4"},{"bufferView":19,"componentType":5126,"count":9,"max":[0.666670024394989],"min":[0],"type":"SCALAR"},{"bufferView":20,"componentType":5126,"count":9,"max":[0,0,1,1],"min":[0,0,-1,-1],"type":"VEC4"},{"bufferView":21,"componentType":5126,"count":9,"max":[0.666670024394989],"min":[0],"type":"SCALAR"},{"bufferView":22,"componentType":5126,"count":9,"max":[0,0,1,1],"min":[0,0,-1,-1],"type":"VEC4"},{"bufferView":23,"componentType":5126,"count":9,"max":[0.666670024394989],"min":[0],"type":"SCALAR"},{"bufferView":24,"componentType":5126,"count":9,"max":[0,0,1,1],"min":[0,0,-1,-1],"type":"VEC4"},{"bufferView":25,"componentType":5126,"count":5,"max":[0.666670024394989],"min":[0],"type":"SCALAR"},{"bufferView":26,"componentType":5126,"count":5,"max":[0,0,1,1],"min":[0,0,0,-1],"type":"VEC4"},{"bufferView":27,"componentType":5126,"count":9,"max":[0.666670024394989],"min":[0],"type":"SCALAR"},{"bufferView":28,"componentType":5126,"count":9,"max":[0,0,1,1],"min":[0,0,-1,-1],"type":"VEC4"},{"bufferView":29,"componentType":5126,"count":9,"max":[0.666670024394989],"min":[0],"type":"SCALAR"},{"bufferView":30,"componentType":5126,"count":9,"max":[0,0,1,1],"min":[0,0,-1,-1],"type":"VEC4"}],"materials":[{"pbrMetallicRoughness":{"metallicFactor":0,"roughnessFactor":1,"baseColorTexture":{"index":0}},"alphaMode":"MASK","alphaCutoff":0.05,"doubleSided":true}],"textures":[{"sampler":0,"source":0,"name":"texture.png"}],"samplers":[{"magFilter":9728,"minFilter":9728,"wrapS":33071,"wrapT":33071}],"images":[{"mimeType":"image/png","uri":"data:image/png;base64,"}],"meshes":[{"primitives":[{"mode":4,"attributes":{"POSITION":0,"NORMAL":1,"TEXCOORD_0":2,"JOINTS_0":3,"WEIGHTS_0":4},"indices":5,"material":0}]}],"skins":[{"inverseBindMatrices":6,"joints":[12,5,3,0,1,2,4,11,6,10,7,8,9],"skeleton":12}],"animations":[{"name":"equip","samplers":[{"input":7,"output":8,"interpolation":"LINEAR"},{"input":9,"output":10,"interpolation":"LINEAR"}],"channels":[{"sampler":0,"target":{"node":12,"path":"rotation"}},{"sampler":1,"target":{"node":12,"path":"translation"}}]},{"name":"primary fire start","samplers":[{"input":11,"output":12,"interpolation":"LINEAR"},{"input":13,"output":14,"interpolation":"LINEAR"},{"input":15,"output":16,"interpolation":"LINEAR"},{"input":17,"output":18,"interpolation":"LINEAR"},{"input":19,"output":20,"interpolation":"LINEAR"},{"input":21,"output":22,"interpolation":"LINEAR"},{"input":23,"output":24,"interpolation":"LINEAR"},{"input":25,"output":26,"interpolation":"LINEAR"},{"input":27,"output":28,"interpolation":"LINEAR"},{"input":29,"output":30,"interpolation":"LINEAR"}],"channels":[{"sampler":0,"target":{"node":8,"path":"rotation"}},{"sampler":1,"target":{"node":12,"path":"rotation"}},{"sampler":2,"target":{"node":12,"path":"translation"}},{"sampler":3,"target":{"node":3,"path":"rotation"}},{"sampler":4,"target":{"node":0,"path":"rotation"}},{"sampler":5,"target":{"node":1,"path":"rotation"}},{"sampler":6,"target":{"node":2,"path":"rotation"}},{"sampler":7,"target":{"node":10,"path":"rotation"}},{"sampler":8,"target":{"node":7,"path":"rotation"}},{"sampler":9,"target":{"node":9,"path":"rotation"}}]}]}