{"asset":{"version":"2.0","generator":"Blockbench 4.12.4 glTF exporter"},"scenes":[{"nodes":[13],"name":"blockbench_export"}],"scene":0,"nodes":[{"translation":[-1,-1,1],"name":"part 1"},{"translation":[1,-1,-1],"name":"part 2"},{"translation":[-1,-1,-1],"name":"part 3"},{"translation":[1,1,-1],"name":"part 4"},{"translation":[-1,1,-1],"name":"part 5"},{"translation":[1,1,1],"name":"part 6"},{"translation":[1,-1,1],"name":"part 7"},{"translation":[-1.25,1,1],"name":"part 8"},{"name":"eye","children":[0,1,2,3,4,5,6,7]},{"translation":[2.75,0,0],"name":"extension"},{"translation":[1,0,0],"name":"girth","children":[9]},{"translation":[1,0,0],"name":"tail","children":[10]},{"name":"model","children":[8,11]},{"translation":[0,2,0],"name":"model","mesh":0,"children":[12],"skin":0}],"bufferViews":[{"buffer":0,"byteOffset":0,"byteLength":2880,"target":34962,"byteStride":12},{"buffer":0,"byteOffset":2880,"byteLength":2880,"target":34962,"byteStride":12},{"buffer":0,"byteOffset":5760,"byteLength":1920,"target":34962,"byteStride":8},{"buffer":0,"byteOffset":7680,"byteLength":1920,"target":34962,"byteStride":8},{"buffer":0,"byteOffset":9600,"byteLength":3840,"target":34962,"byteStride":16},{"buffer":0,"byteOffset":13440,"byteLength":720,"target":34963},{"buffer":0,"byteOffset":14160,"byteLength":832},{"buffer":0,"byteOffset":14992,"byteLength":12},{"buffer":0,"byteOffset":15004,"byteLength":48},{"buffer":0,"byteOffset":15052,"byteLength":12},{"buffer":0,"byteOffset":15064,"byteLength":48},{"buffer":0,"byteOffset":15112,"byteLength":12},{"buffer":0,"byteOffset":15124,"byteLength":36},{"buffer":0,"byteOffset":15160,"byteLength":12},{"buffer":0,"byteOffset":15172,"byteLength":48},{"buffer":0,"byteOffset":15220,"byteLength":12},{"buffer":0,"byteOffset":15232,"byteLength":36},{"buffer":0,"byteOffset":15268,"byteLength":8},{"buffer":0,"byteOffset":15276,"byteLength":32},{"buffer":0,"byteOffset":15308,"byteLength":8},{"buffer":0,"byteOffset":15316,"byteLength":24},{"buffer":0,"byteOffset":15340,"byteLength":8},{"buffer":0,"byteOffset":15348,"byteLength":24},{"buffer":0,"byteOffset":15372,"byteLength":8},{"buffer":0,"byteOffset":15380,"byteLength":32},{"buffer":0,"byteOffset":15412,"byteLength":8},{"buffer":0,"byteOffset":15420,"byteLength":24},{"buffer":0,"byteOffset":15444,"byteLength":8},{"buffer":0,"byteOffset":15452,"byteLength":32},{"buffer":0,"byteOffset":15484,"byteLength":12},{"buffer":0,"byteOffset":15496,"byteLength":48},{"buffer":0,"byteOffset":15544,"byteLength":12},{"buffer":0,"byteOffset":15556,"byteLength":36},{"buffer":0,"byteOffset":15592,"byteLength":12},{"buffer":0,"byteOffset":15604,"byteLength":48},{"buffer":0,"byteOffset":15652,"byteLength":12},{"buffer":0,"byteOffset":15664,"byteLength":36},{"buffer":0,"byteOffset":15700,"byteLength":12},{"buffer":0,"byteOffset":15712,"byteLength":48},{"buffer":0,"byteOffset":15760,"byteLength":12},{"buffer":0,"byteOffset":15772,"byteLength":36},{"buffer":0,"byteOffset":15808,"byteLength":12},{"buffer":0,"byteOffset":15820,"byteLength":48},{"buffer":0,"byteOffset":15868,"byteLength":12},{"buffer":0,"byteOffset":15880,"byteLength":36},{"buffer":0,"byteOffset":15916,"byteLength":8},{"buffer":0,"byteOffset":15924,"byteLength":24},{"buffer":0,"byteOffset":15948,"byteLength":8},{"buffer":0,"byteOffset":15956,"byteLength":32},{"buffer":0,"byteOffset":15988,"byteLength":12},{"buffer":0,"byteOffset":16000,"byteLength":48},{"buffer":0,"byteOffset":16048,"byteLength":8},{"buffer":0,"byteOffset":16056,"byteLength":32},{"buffer":0,"byteOffset":16088,"byteLength":8},{"buffer":0,"byteOffset":16096,"byteLength":24},{"buffer":0,"byteOffset":16120,"byteLength":8},{"buffer":0,"byteOffset":16128,"byteLength":32},{"buffer":0,"byteOffset":16160,"byteLength":8},{"buffer":0,"byteOffset":16168,"byteLength":24},{"buffer":0,"byteOffset":16192,"byteLength":8},{"buffer":0,"byteOffset":16200,"byteLength":32},{"buffer":0,"byteOffset":16232,"byteLength":8},{"buffer":0,"byteOffset":16240,"byteLength":24},{"buffer":0,"byteOffset":16264,"byteLength":8},{"buffer":0,"byteOffset":16272,"byteLength":32},{"buffer":0,"byteOffset":16304,"byteLength":8},{"buffer":0,"byteOffset":16312,"byteLength":24},{"buffer":0,"byteOffset":16336,"byteLength":8},{"buffer":0,"byteOffset":16344,"byteLength":24},{"buffer":0,"byteOffset":16368,"byteLength":8},{"buffer":0,"byteOffset":16376,"byteLength":32},{"buffer":0,"byteOffset":16408,"byteLength":8},{"buffer":0,"byteOffset":16416,"byteLength":24},{"buffer":0,"byteOffset":16440,"byteLength":8},{"buffer":0,"byteOffset":16448,"byteLength":32},{"buffer":0,"byteOffset":16480,"byteLength":8},{"buffer":0,"byteOffset":16488,"byteLength":24},{"buffer":0,"byteOffset":16512,"byteLength":8},{"buffer":0,"byteOffset":16520,"byteLength":32},{"buffer":0,"byteOffset":16552,"byteLength":8},{"buffer":0,"byteOffset":16560,"byteLength":24},{"buffer":0,"byteOffset":16584,"byteLength":8},{"buffer":0,"byteOffset":16592,"byteLength":24},{"buffer":0,"byteOffset":16616,"byteLength":8},{"buffer":0,"byteOffset":16624,"byteLength":24}],"buffers":[{"byteLength":16648,"uri":"data:application/octet-stream;base64,"}],"accessors":[{"bufferView":0,"componentType":5126,"count":240,"max":[8.75,2,2],"min":[-2,-2,-2],"type":"VEC3"},{"bufferView":1,"componentType":5126,"count":240,"max":[1,1,1],"min":[-1,-1,-1],"type":"VEC3"},{"bufferView":2,"componentType":5126,"count":240,"max":[0.6171875,0.5234375],"min":[0,0],"type":"VEC2"},{"bufferView":3,"componentType":5123,"count":240,"max":[0,12,0,0],"min":[0,2,0,0],"type":"VEC4"},{"bufferView":4,"componentType":5126,"count":240,"max":[0,1,0,0],"min":[0,1,0,0],"type":"VEC4"},{"bufferView":5,"componentType":5123,"count":360,"max":[239],"min":[0],"type":"SCALAR"},{"bufferView":6,"componentType":5126,"count":13,"max":[1,0,0,0,0,1,0,0,0,0,1,0,1.25,1,1,1],"min":[1,0,0,0,0,1,0,0,0,0,1,0,-4.75,-1,-1,1],"type":"MAT4"},{"bufferView":7,"componentType":5126,"count":3,"max":[0.5],"min":[0],"type":"SCALAR"},{"bufferView":8,"componentType":5126,"count":3,"max":[0,0.06540312618017197,0,0.9978589415550232],"min":[0,-0.06540312618017197,0,0.9978589415550232],"type":"VEC4"},{"bufferView":9,"componentType":5126,"count":3,"max":[0.5],"min":[0],"type":"SCALAR"},{"bufferView":10,"componentType":5126,"count":3,"max":[0,0,0.237685889005661,0.9713420867919922],"min":[0,0,-0.237685889005661,0.9713420867919922],"type":"VEC4"},{"bufferView":11,"componentType":5126,"count":3,"max":[0.5],"min":[0],"type":"SCALAR"},{"bufferView":12,"componentType":5126,"count":3,"max":[0.625,0,0],"min":[0.5,0,0],"type":"VEC3"},{"bufferView":13,"componentType":5126,"count":3,"max":[0.5],"min":[0],"type":"SCALAR"},{"bufferView":14,"componentType":5126,"count":3,"max":[0,0,0.3461170494556427,0.9381913542747498],"min":[0,0,-0.3583679497241974,0.9335803985595703],"type":"VEC4"},{"bufferView":15,"componentType":5126,"count":3,"max":[0.5],"min":[0],"type":"SCALAR"},{"bufferView":16,"componentType":5126,"count":3,"max":[2.5557472705841064,0.00043715329957194626,0],"min":[2.528247356414795,-0.11543715000152588,0],"type":"VEC3"},{"bufferView":17,"componentType":5126,"count":2,"max":[0.25],"min":[0],"type":"SCALAR"},{"bufferView":18,"componentType":5126,"count":2,"max":[0,0,0.7071067690849304,1],"min":[0,0,0,0.7071067690849304],"type":"VEC4"},{"bufferView":19,"componentType":5126,"count":2,"max":[0.25],"min":[0],"type":"SCALAR"},{"bufferView":20,"componentType":5126,"count":2,"max":[0,0,0],"min":[-3.25,0,0],"type":"VEC3"},{"bufferView":21,"componentType":5126,"count":2,"max":[0.25],"min":[0],"type":"SCALAR"},{"bufferView":22,"componentType":5126,"count":2,"max":[1,0,0],"min":[1,-1.25,0],"type":"VEC3"},{"bufferView":23,"componentType":5126,"count":2,"max":[0.25],"min":[0],"type":"SCALAR"},{"bufferView":24,"componentType":5126,"count":2,"max":[0,0,0.13052618503570557,1],"min":[0,0,0,0.9914448857307434],"type":"VEC4"},{"bufferView":25,"componentType":5126,"count":2,"max":[0.25],"min":[0],"type":"SCALAR"},{"bufferView":26,"componentType":5126,"count":2,"max":[3.5,0,0],"min":[1,0,0],"type":"VEC3"},{"bufferView":27,"componentType":5126,"count":2,"max":[0.25],"min":[0],"type":"SCALAR"},{"bufferView":28,"componentType":5126,"count":2,"max":[0,0,0,1],"min":[0,0,-0.2798290252685547,0.9600498676300049],"type":"VEC4"},{"bufferView":29,"componentType":5126,"count":3,"max":[0.25],"min":[0],"type":"SCALAR"},{"bufferView":30,"componentType":5126,"count":3,"max":[0,0,0.3801547884941101,1],"min":[-0.9249228239059448,-0.3535533845424652,0,-0.0002375939511694014],"type":"VEC4"},{"bufferView":31,"componentType":5126,"count":3,"max":[0.25],"min":[0],"type":"SCALAR"},{"bufferView":32,"componentType":5126,"count":3,"max":[8.75,5,-1],"min":[1,-1,-7],"type":"VEC3"},{"bufferView":33,"componentType":5126,"count":3,"max":[0.25],"min":[0],"type":"SCALAR"},{"bufferView":34,"componentType":5126,"count":3,"max":[0,0.3535533845424652,0.1464466154575348,1],"min":[-0.3535533845424652,0,0,0.8535534143447876],"type":"VEC4"},{"bufferView":35,"componentType":5126,"count":3,"max":[0.25],"min":[0],"type":"SCALAR"},{"bufferView":36,"componentType":5126,"count":3,"max":[-1,5,-1],"min":[-8,-1,-5],"type":"VEC3"},{"bufferView":37,"componentType":5126,"count":3,"max":[0.25],"min":[0],"type":"SCALAR"},{"bufferView":38,"componentType":5126,"count":3,"max":[0.501507043838501,0,0,1],"min":[0,-0.49872851371765137,-0.4985322952270508,0.5012246370315552],"type":"VEC4"},{"bufferView":39,"componentType":5126,"count":3,"max":[0.25],"min":[0],"type":"SCALAR"},{"bufferView":40,"componentType":5126,"count":3,"max":[11.25,5,8],"min":[1,-1.25,1],"type":"VEC3"},{"bufferView":41,"componentType":5126,"count":3,"max":[0.25],"min":[0],"type":"SCALAR"},{"bufferView":42,"componentType":5126,"count":3,"max":[0.3394443392753601,0.4266000986099243,0.6850062012672424,1],"min":[0,0,0,0.6810099482536316],"type":"VEC4"},{"bufferView":43,"componentType":5126,"count":3,"max":[0.25],"min":[0],"type":"SCALAR"},{"bufferView":44,"componentType":5126,"count":3,"max":[-1.25,5,8],"min":[-9.5,-1.25,1],"type":"VEC3"},{"bufferView":45,"componentType":5126,"count":2,"max":[0.041669998317956924],"min":[0],"type":"SCALAR"},{"bufferView":46,"componentType":5126,"count":2,"max":[1,0,0],"min":[1,-1.25,0],"type":"VEC3"},{"bufferView":47,"componentType":5126,"count":2,"max":[0.125],"min":[0],"type":"SCALAR"},{"bufferView":48,"componentType":5126,"count":2,"max":[0,0,0,1],"min":[0,0,-0.06540312618017197,0.9978589415550232],"type":"VEC4"},{"bufferView":49,"componentType":5126,"count":3,"max":[0.25],"min":[0],"type":"SCALAR"},{"bufferView":50,"componentType":5126,"count":3,"max":[0,0.06540312618017197,0,0.9978589415550232],"min":[0,-0.06540312618017197,0,0.9978589415550232],"type":"VEC4"},{"bufferView":51,"componentType":5126,"count":2,"max":[0.25],"min":[0],"type":"SCALAR"},{"bufferView":52,"componentType":5126,"count":2,"max":[0.1464466154575348,0,0.3535533845424652,1],"min":[0,-0.3535533845424652,0,0.8535534143447876],"type":"VEC4"},{"bufferView":53,"componentType":5126,"count":2,"max":[0.25],"min":[0],"type":"SCALAR"},{"bufferView":54,"componentType":5126,"count":2,"max":[-1,-1,5],"min":[-5,-5,1],"type":"VEC3"},{"bufferView":55,"componentType":5126,"count":2,"max":[0.25],"min":[0],"type":"SCALAR"},{"bufferView":56,"componentType":5126,"count":2,"max":[0.1464466154575348,0,0.3535533845424652,1],"min":[0,-0.3535533845424652,0,0.8535534143447876],"type":"VEC4"},{"bufferView":57,"componentType":5126,"count":2,"max":[0.25],"min":[0],"type":"SCALAR"},{"bufferView":58,"componentType":5126,"count":2,"max":[5,-1,-1],"min":[1,-5,-5],"type":"VEC3"},{"bufferView":59,"componentType":5126,"count":2,"max":[0.25],"min":[0],"type":"SCALAR"},{"bufferView":60,"componentType":5126,"count":2,"max":[0.1464466154575348,0,0.3535533845424652,1],"min":[0,-0.3535533845424652,0,0.8535534143447876],"type":"VEC4"},{"bufferView":61,"componentType":5126,"count":2,"max":[0.25],"min":[0],"type":"SCALAR"},{"bufferView":62,"componentType":5126,"count":2,"max":[-1,-1,-1],"min":[-5,-5,-5],"type":"VEC3"},{"bufferView":63,"componentType":5126,"count":2,"max":[0.25],"min":[0],"type":"SCALAR"},{"bufferView":64,"componentType":5126,"count":2,"max":[0.1464466154575348,0,0.3535533845424652,1],"min":[0,-0.3535533845424652,0,0.8535534143447876],"type":"VEC4"},{"bufferView":65,"componentType":5126,"count":2,"max":[0.25],"min":[0],"type":"SCALAR"},{"bufferView":66,"componentType":5126,"count":2,"max":[5,5,-1],"min":[1,1,-5],"type":"VEC3"},{"bufferView":67,"componentType":5126,"count":2,"max":[0.25],"min":[0],"type":"SCALAR"},{"bufferView":68,"componentType":5126,"count":2,"max":[-1,5,-1],"min":[-5,1,-5],"type":"VEC3"},{"bufferView":69,"componentType":5126,"count":2,"max":[0.25],"min":[0],"type":"SCALAR"},{"bufferView":70,"componentType":5126,"count":2,"max":[0.1464466154575348,0,0.3535533845424652,1],"min":[0,-0.3535533845424652,0,0.8535534143447876],"type":"VEC4"},{"bufferView":71,"componentType":5126,"count":2,"max":[0.25],"min":[0],"type":"SCALAR"},{"bufferView":72,"componentType":5126,"count":2,"max":[5,5,5],"min":[1,1,1],"type":"VEC3"},{"bufferView":73,"componentType":5126,"count":2,"max":[0.25],"min":[0],"type":"SCALAR"},{"bufferView":74,"componentType":5126,"count":2,"max":[0.1464466154575348,0,0.3535533845424652,1],"min":[0,-0.3535533845424652,0,0.8535534143447876],"type":"VEC4"},{"bufferView":75,"componentType":5126,"count":2,"max":[0.25],"min":[0],"type":"SCALAR"},{"bufferView":76,"componentType":5126,"count":2,"max":[5,-1,5],"min":[1,-5,1],"type":"VEC3"},{"bufferView":77,"componentType":5126,"count":2,"max":[0.25],"min":[0],"type":"SCALAR"},{"bufferView":78,"componentType":5126,"count":2,"max":[0.1464466154575348,0,0.3535533845424652,1],"min":[0,-0.3535533845424652,0,0.8535534143447876],"type":"VEC4"},{"bufferView":79,"componentType":5126,"count":2,"max":[0.25],"min":[0],"type":"SCALAR"},{"bufferView":80,"componentType":5126,"count":2,"max":[-1.25,5,5],"min":[-5.25,1,1],"type":"VEC3"},{"bufferView":81,"componentType":5126,"count":2,"max":[0.25],"min":[0],"type":"SCALAR"},{"bufferView":82,"componentType":5126,"count":2,"max":[2.25,0,0],"min":[1,0,0],"type":"VEC3"},{"bufferView":83,"componentType":5126,"count":2,"max":[0.25],"min":[0],"type":"SCALAR"},{"bufferView":84,"componentType":5126,"count":2,"max":[10.25,0,0],"min":[2.75,0,0],"type":"VEC3"}],"materials":[{"pbrMetallicRoughness":{"metallicFactor":0,"roughnessFactor":1,"baseColorTexture":{"index":0}},"alphaMode":"MASK","alphaCutoff":0.05,"doubleSided":true}],"textures":[{"sampler":0,"source":0,"name":"troll_texture.png"}],"samplers":[{"magFilter":9728,"minFilter":9728,"wrapS":33071,"wrapT":33071}],"images":[{"mimeType":"image/png","uri":"data:image/png;base64,"}],"meshes":[{"primitives":[{"mode":4,"attributes":{"POSITION":0,"NORMAL":1,"TEXCOORD_0":2,"JOINTS_0":3,"WEIGHTS_0":4},"indices":5,"material":0}]}],"skins":[{"inverseBindMatrices":6,"joints":[12,8,0,1,2,3,4,5,6,7,11,10,9],"skeleton":12}],"animations":[{"name":"moving","samplers":[{"input":7,"output":8,"interpolation":"LINEAR"},{"input":9,"output":10,"interpolation":"LINEAR"},{"input":11,"output":12,"interpolation":"LINEAR"},{"input":13,"output":14,"interpolation":"LINEAR"},{"input":15,"output":16,"interpolation":"LINEAR"}],"channels":[{"sampler":0,"target":{"node":8,"path":"rotation"}},{"sampler":1,"target":{"node":10,"path":"rotation"}},{"sampler":2,"target":{"node":10,"path":"translation"}},{"sampler":3,"target":{"node":9,"path":"rotation"}},{"sampler":4,"target":{"node":9,"path":"translation"}}]},{"name":"death 1","samplers":[{"input":17,"output":18,"interpolation":"LINEAR"},{"input":19,"output":20,"interpolation":"LINEAR"},{"input":21,"output":22,"interpolation":"LINEAR"},{"input":23,"output":24,"interpolation":"LINEAR"},{"input":25,"output":26,"interpolation":"LINEAR"},{"input":27,"output":28,"interpolation":"LINEAR"}],"channels":[{"sampler":0,"target":{"node":8,"path":"rotation"}},{"sampler":1,"target":{"node":8,"path":"translation"}},{"sampler":2,"target":{"node":11,"path":"translation"}},{"sampler":3,"target":{"node":10,"path":"rotation"}},{"sampler":4,"target":{"node":10,"path":"translation"}},{"sampler":5,"target":{"node":9,"path":"rotation"}}]},{"name":"death 2","samplers":[{"input":29,"output":30,"interpolation":"LINEAR"},{"input":31,"output":32,"interpolation":"LINEAR"},{"input":33,"output":34,"interpolation":"LINEAR"},{"input":35,"output":36,"interpolation":"LINEAR"},{"input":37,"output":38,"interpolation":"LINEAR"},{"input":39,"output":40,"interpolation":"LINEAR"},{"input":41,"output":42,"interpolation":"LINEAR"},{"input":43,"output":44,"interpolation":"LINEAR"},{"input":45,"output":46,"interpolation":"LINEAR"},{"input":47,"output":48,"interpolation":"LINEAR"}],"channels":[{"sampler":0,"target":{"node":3,"path":"rotation"}},{"sampler":1,"target":{"node":3,"path":"translation"}},{"sampler":2,"target":{"node":4,"path":"rotation"}},{"sampler":3,"target":{"node":4,"path":"translation"}},{"sampler":4,"target":{"node":5,"path":"rotation"}},{"sampler":5,"target":{"node":5,"path":"translation"}},{"sampler":6,"target":{"node":7,"path":"rotation"}},{"sampler":7,"target":{"node":7,"path":"translation"}},{"sampler":8,"target":{"node":10,"path":"translation"}},{"sampler":9,"target":{"node":9,"path":"rotation"}}]},{"name":"shocked","samplers":[{"input":49,"output":50,"interpolation":"LINEAR"}],"channels":[{"sampler":0,"target":{"node":8,"path":"rotation"}}]},{"name":"spawn","samplers":[{"input":51,"output":52,"interpolation":"LINEAR"},{"input":53,"output":54,"interpolation":"LINEAR"},{"input":55,"output":56,"interpolation":"LINEAR"},{"input":57,"output":58,"interpolation":"LINEAR"},{"input":59,"output":60,"interpolation":"LINEAR"},{"input":61,"output":62,"interpolation":"LINEAR"},{"input":63,"output":64,"interpolation":"LINEAR"},{"input":65,"output":66,"interpolation":"LINEAR"},{"input":67,"output":68,"interpolation":"LINEAR"},{"input":69,"output":70,"interpolation":"LINEAR"},{"input":71,"output":72,"interpolation":"LINEAR"},{"input":73,"output":74,"interpolation":"LINEAR"},{"input":75,"output":76,"interpolation":"LINEAR"},{"input":77,"output":78,"interpolation":"LINEAR"},{"input":79,"output":80,"interpolation":"LINEAR"},{"input":81,"output":82,"interpolation":"LINEAR"},{"input":83,"output":84,"interpolation":"LINEAR"}],"channels":[{"sampler":0,"target":{"node":0,"path":"rotation"}},{"sampler":1,"target":{"node":0,"path":"translation"}},{"sampler":2,"target":{"node":1,"path":"rotation"}},{"sampler":3,"target":{"node":1,"path":"translation"}},{"sampler":4,"target":{"node":2,"path":"rotation"}},{"sampler":5,"target":{"node":2,"path":"translation"}},{"sampler":6,"target":{"node":3,"path":"rotation"}},{"sampler":7,"target":{"node":3,"path":"translation"}},{"sampler":8,"target":{"node":4,"path":"translation"}},{"sampler":9,"target":{"node":5,"path":"rotation"}},{"sampler":10,"target":{"node":5,"path":"translation"}},{"sampler":11,"target":{"node":6,"path":"rotation"}},{"sampler":12,"target":{"node":6,"path":"translation"}},{"sampler":13,"target":{"node":7,"path":"rotation"}},{"sampler":14,"target":{"node":7,"path":"translation"}},{"sampler":15,"target":{"node":10,"path":"translation"}},{"sampler":16,"target":{"node":9,"path":"translation"}}]}]}